<?xml version="1.0" encoding="utf-8"?>
<!-- Generator: Adobe Illustrator 22.1.0, SVG Export Plug-In . SVG Version: 6.00 Build 0)  -->
<svg version="1.1" id="IFTTT_Applet_Logo" xmlns="http://www.w3.org/2000/svg" xmlns:xlink="http://www.w3.org/1999/xlink" x="0px"
	 y="0px" viewBox="0 0 620 620" style="enable-background:new 0 0 620 620;" xml:space="preserve">
<style type="text/css">
	.st0{fill:#101E1E;}
	.st1{fill:#1657EA;}
	.st2{fill:#FFFFFF;}
</style>
<g>
	<path class="st0" d="M310.1,0.9C140.1,0.9,2,139,2,309s138.1,308,308.1,308s308.1-138.1,308.1-308.1S480,0.9,310.1,0.9"/>
	<path class="st1" d="M512,375.1c0-13.5,10.8-24.7,24.7-24.7c13.5,0,24.7,10.8,24.7,24.7c0,13.5-10.8,24.7-24.7,24.7
		C522.8,399.3,512,388.5,512,375.1"/>
	<path class="st2" d="M181.9,411.9c-56.7,0-103-46.3-103-103s45.9-103,103-103c10.8,0,22,1.8,32.4,4.9c11.2,3.6,17.5,16.2,13.9,27.4
		c-3.6,11.2-16.2,17.5-27.4,13.9c-5.8-1.8-12.1-3.1-18.4-3.1c-32.8,0-59.4,26.5-59.4,59.4s26.5,59.4,59.4,59.4
		c30.6,0,47.7-16.2,62.5-57.1l32.4-90.8c3.1-8.5,11.2-14.4,20.2-14.4c9,0,17.1,5.4,20.7,13.9l37.3,96.7l37.8-96.7
		c3.1-8.5,11.2-13.9,20.2-13.9c0,0,0,0,0.4,0c9,0,17.1,5.8,20.2,14.4l54,150.2c4,11.2-1.8,23.8-13,27.9c-11.2,4-23.8-1.8-27.9-13
		L413,289.6l-36.9,94.4c-3.1,8.5-11.2,13.9-20.2,13.9l0,0c-9,0-17.1-5.4-20.2-13.9l-36.4-94.4l-12.6,35.5
		C271.8,362.9,247.1,411.9,181.9,411.9"/>
</g>
</svg>
